<svg width="25" height="24" viewBox="0 0 25 24" fill="none" xmlns="http://www.w3.org/2000/svg">
<g clip-path="url(#clip0_1_1680)">
<path fill-rule="evenodd" clip-rule="evenodd" d="M9.49987 2.00098V3.75107C8.59578 3.75437 7.91556 3.76665 7.35838 3.81217C6.63284 3.87145 6.27136 3.97826 6.0244 4.10409C5.41287 4.41568 4.91568 4.91287 4.60409 5.5244C4.47826 5.77136 4.37145 6.13284 4.31217 6.85838C4.26665 7.41556 4.25437 8.09578 4.25107 8.99987H2.50098C2.50863 6.84979 2.56898 5.66383 3.04483 4.72991C3.5242 3.7891 4.2891 3.0242 5.22991 2.54483C6.16383 2.06898 7.34979 2.00863 9.49987 2.00098ZM15.4999 3.75107V2.00098C17.6499 2.00863 18.8359 2.06898 19.7698 2.54483C20.7106 3.0242 21.4755 3.7891 21.9549 4.72991C22.4308 5.66383 22.4911 6.84979 22.4988 8.99987H20.7487C20.7454 8.09578 20.7331 7.41556 20.6876 6.85838C20.6283 6.13284 20.5215 5.77136 20.3956 5.5244C20.084 4.91287 19.5869 4.41568 18.9753 4.10409C18.7284 3.97826 18.3669 3.87145 17.6413 3.81217C17.0842 3.76665 16.4039 3.75437 15.4999 3.75107ZM7.35838 20.1876C7.91556 20.2331 8.59578 20.2454 9.49987 20.2487V21.9988C7.34979 21.9911 6.16383 21.9308 5.22991 21.4549C4.2891 20.9755 3.5242 20.2106 3.04483 19.2698C2.56898 18.3359 2.50863 17.1499 2.50098 14.9999H4.25107C4.25437 15.9039 4.26665 16.5842 4.31217 17.1413C4.37145 17.8669 4.47826 18.2284 4.60409 18.4753C4.91568 19.0869 5.41287 19.584 6.0244 19.8956C6.27136 20.0215 6.63284 20.1283 7.35838 20.1876ZM19.7698 21.4549C18.8359 21.9308 17.6499 21.9911 15.4999 21.9988V20.2487C16.4039 20.2454 17.0842 20.2331 17.6413 20.1876C18.3669 20.1283 18.7284 20.0215 18.9753 19.8956C19.5869 19.584 20.084 19.0869 20.3956 18.4753C20.5215 18.2284 20.6283 17.8669 20.6876 17.1413C20.7331 16.5842 20.7454 15.9039 20.7487 14.9999H22.4988C22.4911 17.1499 22.4308 18.3359 21.9549 19.2698C21.4755 20.2106 20.7106 20.9755 19.7698 21.4549Z" fill="#21201F"/>
</g>
<path d="M19.5 13H13.5V19H11.5V13H5.5V11H11.5V5H13.5V11H19.5V13Z" fill="black"/>
<defs>
<clipPath id="clip0_1_1680">
<rect width="24" height="24" fill="white" transform="translate(0.5)"/>
</clipPath>
</defs>
</svg>
